# AST/ASF file generated using VICON BodyLanguage
# -----------------------------------------------
:version 1.10
:name VICON
:units
  mass 1.0
  length 0.45
  angle deg
:documentation
   .ast/.asf automatically generated from VICON data using
   VICON BodyBuilder and BodyLanguage model FoxedUp or BRILLIANT.MOD
:root
   order TX TY TZ RX RY RZ
   axis XYZ
   position 0 0 0  
   orientation 0 0 0 
:bonedata
  begin
     id 1 
     name lhipjoint
     direction 0.54267 -0.795011 0.271047 
     length 2.39899 
     axis 0 0 0  XYZ
  end
  begin
     id 2 
     name lfemur
     direction 0.34202 -0.939693 0  
     length 7.49701  
     axis 0 0 20  XYZ
    dof rx ry rz
    limits (-160.0 20.0)
           (-70.0 70.0)
           (-60.0 70.0)
  end
  begin
     id 3 
     name ltibia
     direction 0.34202 -0.939693 0   
     length 8.1668   
     axis 0 0 20   XYZ
    dof rx
    limits (-10.0 170.0)
  end
  begin
     id 4 
     name lfoot
     direction 0.0736283 -0.202292 0.976554   
     length 2.13544   
     axis -90 7.62852e-016 20   XYZ
    dof rx rz
    limits (-45.0 90.0)
           (-70.0 20.0)
  end
  begin
     id 5 
     name ltoes
     direction 1.53557e-011 -4.22024e-011 1   
     length 1.07411   
     axis -90 7.62852e-016 20   XYZ
    dof rx
    limits (-90.0 20.0)
  end
  begin
     id 6 
     name rhipjoint
     direction -0.538061 -0.797813 0.272002   
     length 2.39057  
     axis 0 0 0  XYZ 
  end
  begin
     id 7 
     name rfemur
     direction -0.34202 -0.939693 0   
     length 7.50152   
     axis 0 0 -20   XYZ
    dof rx ry rz
    limits (-160.0 20.0)
           (-70.0 70.0)
           (-70.0 60.0)
  end
  begin
     id 8 
     name rtibia
     direction -0.34202 -0.939693 0   
     length 8.05793   
     axis 0 0 -20   XYZ
    dof rx
    limits (-10.0 170.0)
 end
 begin
     id 9 
     name rfoot
     direction -0.0765195 -0.210236 0.974652   
     length 2.28698  
     axis -90 -7.62852e-016 -20   XYZ
    dof rx rz
    limits (-45.0 90.0)
           (-20.0 70.0)
  end
  begin
     id 10 
     name rtoes
     direction -1.53542e-011 -4.21847e-011 1   
     length 1.14762   
     axis -90 -7.62852e-016 -20   XYZ
    dof rx
    limits (-90.0 20.0)
  end
  begin
     id 11 
     name lowerback
     direction -0.0217239 0.996592 -0.0795765   
     length 2.08176   
     axis 0 0 0   XYZ
    dof rx ry rz
    limits (-20.0 45.0)
           (-30.0 30.0)
           (-30.0 30.0)
  end
  begin
     id 12 
     name upperback
     direction -0.00563773 0.999651 -0.0258155   
     length 2.08898   
     axis 0 0 0   XYZ
    dof rx ry rz
    limits (-20.0 45.0)
           (-30.0 30.0)
           (-30.0 30.0)
  end
  begin
     id 13 
     name thorax
     direction 0.0032706 0.999923 0.0119599   
     length 2.0968   
     axis 0 0 0   XYZ
    dof rx ry rz
    limits (-20.0 45.0)
           (-30.0 30.0)
           (-30.0 30.0)
  end
  begin
     id 14 
     name lowerneck
     direction -0.0285886 0.99568 0.0883427   
     length 1.81272   
     axis 0 0 0   XYZ
    dof rx ry rz
    limits (-20.0 45.0)
           (-30.0 30.0)
           (-30.0 30.0)
  end
  begin
     id 15 
     name upperneck
     direction 0.0807535 0.97985 -0.18268   
     length 1.82518   
     axis 0 0 0   XYZ
    dof rx ry rz
    limits (-20.0 45.0)
           (-30.0 30.0)
           (-30.0 30.0)
  end
  begin
     id 16
     name head
     direction 0.0236605 0.997053 -0.0729767  
     length 1.84443  
     axis 0 0 0   XYZ
    dof rx ry rz
    limits (-20.0 45.0)
           (-30.0 30.0)
           (-30.0 30.0)
  end
  begin
     id 17 
     name lclavicle
     direction 0.918986 0.39378 -0.0200683  
     length 3.27822  
     axis 0 0 0   XYZ
    dof ry rz
    limits (-20.0 10.0)
           (0.0 20.0)
  end
  begin
     id 18 
     name lhumerus
     direction 1 -4.4897e-011 2.09544e-027   
     length 5.5568   
     axis 180 -30 -90   XYZ
    dof rx ry rz
    limits (-60.0 90.0)
           (-90.0 90.0)
           (-90.0 90.0)
  end
  begin
     id 19
     name lradius
     direction 1 -4.48957e-011 -1.27696e-026   
     length 3.63979   
     axis 180 -30 -90   XYZ
    dof rx
    limits (-10.0 170.0)
  end
  begin
     id 20
     name lwrist
     direction 1 -4.49001e-011 -1.49001e-026   
     length 1.8199   
     axis 9.0955e-015 90 90   XYZ
    dof ry
    limits (-180.0 0.0)
 end
  begin
     id 21 
     name lhand
     direction 1 -4.48709e-011 -2.9758e-026   
     length 0.569419   
     axis 1.90115e-014 90 90   XYZ
    dof rx rz
    limits (-90.0 90.0)
           (-45.0 45.0)
  end
  begin
     id 22 
     name lfingers
     direction 1 -4.49175e-011 -5.96505e-026   
     length 0.45908   
     axis 3.80223e-014 90 90   XYZ
    dof rx
    limits (0.0 90.0)
  end
  begin
     id 23
     name lthumb
     direction 0.707107 -6.34864e-011 0.707107   
     length 0.65915   
     axis -90 45 -3.84942e-014   XYZ
    dof rx rz
    limits (-45.0 45.0)
           (-45.0 45.0)
  end
  begin
     id 24 
     name rclavicle
     direction -0.911913 0.396426 -0.106115   
     length 3.46301  
     axis 0 0 0   XYZ 
    dof ry rz
    limits (-10.0 20.0)
           (-20.0 0.0)
  end
  begin
     id 25 
     name rhumerus
     direction -1 -4.48965e-011 7.78516e-028  
     length 5.34339   
     axis 180 30 90   XYZ
    dof rx ry rz
    limits (-90.0 60.0)
           (-90.0 90.0)
           (-90.0 90.0)
  end
  begin
     id 26 
     name rradius
     direction -1 -4.48948e-011 -5.79823e-027   
     length 3.65101   
     axis 180 30 90   XYZ
    dof rx
    limits (-10.0 170.0)
  end
  begin
     id 27 
     name rwrist
     direction -1 -4.48995e-011 -1.48996e-026   
     length 1.8255   
     axis 9.0955e-015 -90 -90   XYZ
    dof ry
    limits (-180.0 0.0)
  end
  begin
     id 28
     name rhand
     direction -1 -4.48957e-011 -2.97937e-026   
     length 0.694249   
     axis 1.90115e-014 -90 -90   XYZ
    dof rx rz
    limits (-90.0 90.0)
           (-45.0 45.0)
  end
  begin
     id 29
     name rfingers
     direction -1 -4.4898e-011 -5.95943e-026   
     length 0.559721   
     axis 3.80223e-014 -90 -90   XYZ
    dof rx
    limits (0.0 90.0)
  end
  begin
     id 30
     name rthumb
     direction -0.707107 -6.34969e-011 0.707107   
     length 0.803651   
     axis -90 -45 3.84942e-014   XYZ
    dof rx rz
    limits (-45.0 45.0)
           (-45.0 45.0)
  end
:hierarchy
  begin
    root lhipjoint rhipjoint lowerback
    lhipjoint lfemur
    lfemur ltibia
    ltibia lfoot
    lfoot ltoes
    rhipjoint rfemur
    rfemur rtibia
    rtibia rfoot
    rfoot rtoes
    lowerback upperback
    upperback thorax
    thorax lowerneck lclavicle rclavicle
    lowerneck upperneck
    upperneck head
    lclavicle lhumerus
    lhumerus lradius
    lradius lwrist
    lwrist lhand lthumb
    lhand lfingers
    rclavicle rhumerus
    rhumerus rradius
    rradius rwrist
    rwrist rhand rthumb
    rhand rfingers
  end

#!OML:ASF H:\Terrain\Walking\May29\JustinRory\rory.ASF
:FULLY-SPECIFIED
:DEGREES
204
root 10.9372 17.3145 -17.6485 -5.84111 65.3232 -8.92135
lowerback 16.0044 1.63156 4.35897
upperback 7.09713 3.14342 2.62964
thorax -1.33961 1.73631 -0.226234
lowerneck 3.33031 -21.5319 -18.3025
upperneck -9.05166 -29.2827 30.246
head 4.32337 -15.0284 9.45244
rclavicle -5.08889e-014 -3.97569e-014
rhumerus 12.2025 -61.1274 -27.443
rradius 10.5068
rwrist 37.0918
rhand -20.1882 13.1473
rfingers 7.12502
rthumb 6.15813 -16.7432
lclavicle -5.08889e-014 -3.97569e-014
lhumerus -50.8093 19.2684 27.1006
lradius 32.6482
lwrist -4.32764
lhand -4.23977 16.2801
lfingers 7.12502
lthumb 21.5237 45.1042
rfemur -30.2212 -9.34866 7.1701
rtibia 52.094
rfoot -1.33126 13.0945
rtoes -10.9925
lfemur -26.9864 5.37742 -23.1109
ltibia 47.1277
lfoot -23.7322 4.76903
ltoes 6.72672
205
root 10.9081 17.2893 -17.5513 -6.32423 65.0983 -8.90478
lowerback 16.7447 1.64189 4.38031
upperback 7.4836 3.21012 2.53574
thorax -1.30885 1.78661 -0.365866
lowerneck 3.29416 -21.6752 -17.4833
upperneck -9.99396 -29.2481 30.7613
head 4.02651 -15.0888 9.55551
rclavicle 7.95139e-015 -3.18055e-015
rhumerus 12.8636 -61.6214 -27.7422
rradius 9.9214
rwrist 39.8037
rhand -19.3722 13.5277
rfingers 7.12502
rthumb 6.94589 -16.3384
lclavicle 7.95139e-015 -3.18055e-015
lhumerus -50.3039 19.6289 26.4678
lradius 33.2958
lwrist -5.18975
lhand -4.19544 15.7897
lfingers 7.12502
lthumb 21.5663 44.6089
rfemur -31.3494 -9.1529 6.20219
rtibia 54.4944
rfoot 1.3601 16.4997
rtoes -8.02361
lfemur -26.8074 5.63896 -22.599
ltibia 47.8384
lfoot -23.6178 4.57982
ltoes 6.8749
206
root 10.8767 17.2558 -17.4398 -7.2347 65.0522 -9.23957
lowerback 17.5549 1.57305 4.48778
upperback 7.86075 3.19937 2.53791
thorax -1.3237 1.79985 -0.443343
lowerneck 3.61171 -21.7437 -17.1311
upperneck -11.0962 -29.1519 31.4901
head 3.72966 -15.1543 9.82866
rclavicle -5.56597e-015 3.97569e-015
rhumerus 13.6505 -62.0169 -28.0939
rradius 9.23855
rwrist 42.2746
rhand -19.6724 13.4282
rfingers 7.12502
rthumb 6.65604 -16.4472
lclavicle -5.56597e-015 3.97569e-015
lhumerus -49.5472 19.0548 26.1659
lradius 33.9097
lwrist -4.77417
lhand -4.84281 15.5781
lfingers 7.12502
lthumb 20.9444 44.4673
rfemur -32.0161 -8.81193 5.36954
rtibia 56.4714
rfoot 3.09326 18.396
rtoes -6.40481
lfemur -26.5507 6.10066 -21.8703
ltibia 48.5848
lfoot -23.7283 4.31705
ltoes 5.80792
207
root 10.8474 17.2112 -17.3104 -7.10571 65.1985 -8.49037
lowerback 18.1635 1.5243 3.99561
upperback 8.16805 3.10487 2.55723
thorax -1.34426 1.75435 -0.14576
lowerneck 4.02765 -21.7819 -17.3576
upperneck -11.8584 -29.1355 32.105
head 3.60084 -15.2326 10.1053
rclavicle 2.3059e-014 -5.56597e-014
rhumerus 14.2959 -62.1716 -28.2519
rradius 8.82562
rwrist 44.6182
rhand -20.0463 13.1335
rfingers 7.12502
rthumb 6.29512 -16.753
lclavicle 2.3059e-014 -5.56597e-014
lhumerus -49.2318 18.4959 25.662
lradius 34.7084
lwrist -4.38593
lhand -4.721 15.6961
lfingers 7.12502
lthumb 21.0615 44.5723
rfemur -32.4055 -8.65524 4.12644
rtibia 58.0239
rfoot 2.28253 18.7662
rtoes -10.1887
lfemur -26.383 6.66237 -21.6284
ltibia 49.401
lfoot -23.6931 4.038
ltoes 3.65385
208
root 10.8227 17.1672 -17.1728 -6.35183 65.5108 -7.28144
lowerback 18.5745 1.51972 3.3252
upperback 8.33715 3.01562 2.48859
thorax -1.41131 1.70171 0.163529
lowerneck 4.36922 -21.862 -17.3485
upperneck -12.3547 -29.1923 32.491
head 3.49441 -15.3286 10.2605
rclavicle -2.62396e-014 3.18055e-015
rhumerus 13.6329 -62.3279 -27.544
rradius 9.18759
rwrist 46.7417
rhand -19.4133 13.0699
rfingers 7.12502
rthumb 6.90622 -16.7975
lclavicle -2.62396e-014 3.18055e-015
lhumerus -48.6943 17.8711 24.9822
lradius 35.3439
lwrist -4.23436
lhand -4.35592 15.6922
lfingers 7.12502
lthumb 21.4121 44.529
rfemur -32.6375 -8.60851 2.72702
rtibia 59.084
rfoot -0.232917 17.3754
rtoes -16.8672
lfemur -26.438 7.10961 -21.6632
ltibia 50.2309
lfoot -23.6497 3.39858
ltoes 2.83906
209
root 10.8029 17.1255 -17.0322 -5.49429 66.0773 -6.11334
lowerback 18.7972 1.46375 2.72617
upperback 8.47813 2.85614 2.37396
thorax -1.40251 1.61634 0.40554
lowerneck 4.65395 -21.92 -17.1285
upperneck -12.8604 -29.1832 32.9277
head 3.35823 -15.3986 10.4214
rclavicle -1.31198e-014 -1.03368e-014
rhumerus 12.9022 -62.5478 -26.8679
rradius 9.39341
rwrist 48.6752
rhand -19.2894 12.8973
rfingers 7.12502
rthumb 7.02577 -16.9661
lclavicle -1.31198e-014 -1.03368e-014
lhumerus -47.8679 17.5677 24.1422
lradius 35.7067
lwrist -4.38292
lhand -4.64653 15.4223
lfingers 7.12502
lthumb 21.133 44.2906
rfemur -32.6605 -8.62465 1.22072
rtibia 59.6024
rfoot -2.44363 14.3973
rtoes -21.4184
lfemur -26.5953 7.39539 -21.7404
ltibia 51.0324
lfoot -23.6382 2.67371
ltoes 2.03194
210
root 10.7862 17.08 -16.8826 -4.55942 66.79 -4.91494
lowerback 18.889 1.3636 2.15916
upperback 8.61439 2.63725 2.24076
thorax -1.32569 1.50244 0.626995
lowerneck 4.83211 -22.0507 -16.9145
upperneck -13.0888 -29.3203 33.2312
head 3.3246 -15.5128 10.4833
rclavicle -3.77691e-014 -2.46493e-014
rhumerus 12.6004 -62.726 -26.5897
rradius 9.26344
rwrist 50.5345
rhand -19.6539 12.8983
rfingers 7.12502
rthumb 6.6739 -16.9765
lclavicle -3.77691e-014 -2.46493e-014
lhumerus -46.787 17.4077 23.2529
lradius 35.917
lwrist -4.40446
lhand -5.37637 15.2936
lfingers 7.12502
lthumb 20.4318 44.2387
rfemur -32.3847 -8.48326 -0.431809
rtibia 59.4489
rfoot -3.51444 10.5737
rtoes -20.8183
lfemur -26.7178 7.60779 -21.7885
ltibia 51.7926
lfoot -23.7069 1.93978
ltoes 1.08068
211
root 10.7766 17.0233 -16.7303 -3.87002 67.5055 -4.10155
lowerback 18.9014 1.25096 1.93716
upperback 8.62002 2.4525 2.097
thorax -1.3295 1.40936 0.635991
lowerneck 5.2496 -22.254 -17.0004
upperneck -13.1076 -29.6651 33.6271
head 3.42709 -15.73 10.5664
rclavicle 4.81059e-014 -3.26007e-014
rhumerus 11.6883 -62.8015 -25.7741
rradius 9.25971
rwrist 52.1578
rhand -19.42 13.368
rfingers 7.12502
rthumb 6.89975 -16.4996
lclavicle 4.81059e-014 -3.26007e-014
lhumerus -45.2711 16.56 22.5447
lradius 36.1093
lwrist -3.57861
lhand -6.33267 15.7124
lfingers 7.12502
lthumb 19.5125 44.7533
rfemur -31.872 -8.27199 -1.94282
rtibia 58.5367
rfoot -4.22942 6.56797
rtoes -19.4081
lfemur -26.9027 7.68542 -21.6487
ltibia 52.5601
lfoot -23.8621 0.968556
ltoes 1.32492
212
root 10.7756 16.9732 -16.5795 -3.70734 68.299 -3.94424
lowerback 18.7733 1.07578 1.97639
upperback 8.57134 2.22799 2.0707
thorax -1.31367 1.29955 0.632063
lowerneck 5.77317 -22.4031 -17.4709
upperneck -13.0573 -30.0107 34.1705
head 3.62952 -15.9445 10.733
rclavicle -5.36719e-014 2.38542e-015
rhumerus 10.8407 -62.7523 -24.9123
rradius 9.12336
rwrist 53.668
rhand -19.2569 13.5507
rfingers 7.12502
rthumb 7.05714 -16.3117
lclavicle -5.36719e-014 2.38542e-015
lhumerus -43.9539 15.9958 21.7372
lradius 36.4027
lwrist -2.71776
lhand -7.24497 16.5244
lfingers 7.12502
lthumb 18.6352 45.6518
rfemur -30.9973 -7.87465 -3.1624
rtibia 56.8058
rfoot -4.66168 2.52115
rtoes -20.6952
lfemur -27.1916 7.66415 -21.2744
ltibia 53.3914
lfoot -24.0766 0.284039
ltoes 1.35061
213
root 10.7773 16.9249 -16.4279 -4.09435 69.1272 -4.43523
lowerback 18.5261 0.865585 2.25357
upperback 8.49232 1.99219 2.07677
thorax -1.26232 1.18863 0.531869
lowerneck 6.10177 -22.5385 -17.7274
upperneck -12.7061 -30.3526 34.4096
head 3.85151 -16.1198 10.7587
rclavicle -7.95139e-016 -3.97569e-015
rhumerus 9.89688 -62.6532 -24.123
rradius 8.99703
rwrist 55.1686
rhand -19.3076 13.0368
rfingers 7.12502
rthumb 7.00825 -16.8272
lclavicle -7.95139e-016 -3.97569e-015
lhumerus -42.9877 15.9286 20.7274
lradius 36.9522
lwrist -2.15722
lhand -8.31757 17.0856
lfingers 7.12502
lthumb 17.6033 46.3087
rfemur -29.8169 -7.05947 -4.1102
rtibia 54.3253
rfoot -4.29088 -1.47174
rtoes -22.0394
lfemur -27.6246 7.66923 -20.6699
ltibia 54.3248
lfoot -24.3054 -0.058281
ltoes 0.419856
214
root 10.782 16.8623 -16.2753 -4.97892 70.0094 -5.42995
lowerback 18.2187 0.520512 2.66892
upperback 8.62447 1.60703 2.10741
thorax -0.953531 1.016 0.411371
lowerneck 5.24655 -22.8381 -17.2752
upperneck -11.9968 -30.7848 34.0343
head 4.1355 -16.2146 10.3509
rclavicle -3.45885e-014 4.53229e-014
rhumerus 9.90222 -62.7906 -24.3325
rradius 8.97268
rwrist 56.3057
rhand -18.7083 11.9757
rfingers 7.12502
rthumb 7.58675 -17.8683
lclavicle -3.45885e-014 4.53229e-014
lhumerus -42.1971 16.4372 19.6717
lradius 37.7187
lwrist -1.53624
lhand -9.5207 17.6439
lfingers 7.12502
lthumb 16.4452 46.9668
rfemur -28.3343 -5.99778 -4.93324
rtibia 51.2914
rfoot -3.09238 -5.02766
rtoes -22.1795
lfemur -28.1177 7.56803 -19.9194
ltibia 55.3606
lfoot -24.7326 -0.204263
ltoes -2.17949
